# xmcd CD database file
#
# Track frame offsets:
#	150
#	4697
#	20750
#	36000
#	56769
#	72632
#	82782
#	99990
#	116290
#	134452
#	150478
#	169116
#	184552
#
# Disc length: 3261 seconds
#
# Revision: 8
# Processed by: cddbd v1.5.2PL0 Copyright (c) Steve Scherf et al.
# Submitted via: CDex 1.85
#
DISCID=9c0cbb0d
DTITLE=Seasick Steve - Dog House Music
DYEAR=2006
DGENRE=Blues
TTITLE0=Yellow Dog
TTITLE1=Things Go Up
TTITLE2=Cut My Wings
TTITLE3=Fallen Off A Rock
TTITLE4=Dog House Boogie
TTITLE5=Save Me
TTITLE6=Hobo Low
TTITLE7=Shirly Lov
TTITLE8=My Donny
TTITLE9=The Dead Song
TTITLE10=Last Po' Man
TTITLE11=Salem Blues
TTITLE12=I'm Gone - One True (hidden track)
EXTD=Location:  - UPC: 5060130500028 - Catalogue number: BR04 - Label: Bronze Rat - ASIN: B000JU7ITW - Release Date: 2006 11 27 - Discogs: m206536,r1414655 - MUSICBRAINZ_ALBUMID: 9110b12b-d9e4-400f-b6e1-a6060c1ea3aa - AMG: p859667,r943073 - YEAR: 2006
EXTT0=
EXTT1=
EXTT2=
EXTT3=
EXTT4=
EXTT5=
EXTT6=
EXTT7=
EXTT8=
EXTT9=
EXTT10=
EXTT11=
EXTT12=
PLAYORDER=
